<svg width="0" height="0" className="hidden">
    <symbol xmlns="http://www.w3.org/2000/svg" viewBox="0 0 51 51">
        <circle cx="25.5" cy="25.5" r="25.5"/>
        <rect
                width="1.6"
                height="15.24"
                x="24.4"
                y="27.9"
                rx="0.8"
                transform="rotate(-39 11.114 37.674)"
        />
        <rect
                width="1.6"
                height="15.24"
                x="33.3"
                y="27.9"
                rx="0.8"
                transform="rotate(37.3 44.444 24.605)"
        />
    </symbol>
    <symbol
            xmlns="http://www.w3.org/2000/svg"
            viewBox="0 0 501.656 501.656"
            xml:space="preserve"
    >
        <path d="M342.512 328h-200a8 8 0 00-5.656 2.344l-96 96 11.312 11.312L145.824 344h187.888c-1.664 9.496-6.888 24-23.2 24h-88v16h88c31.64 0 40-31.4 40-48a8 8 0 00-8-8z"/>
        <path d="M444.168 274.344a8 8 0 00-11.312 0l-72 72 11.312 11.312 65.712-65.712c10.828 14.37 8.629 34.68-5.024 46.4L339.2 432H174.512a8 8 0 00-5.656 2.344l-56 56 11.312 11.312L177.824 448h164.688a8 8 0 005.656-2.344l96-96c29.792-29.792 13.024-62./053-152 152s68.053 152 152 152c83.909-.093 151.907-68.091 152-152 0-83.947-68.053-152-152-152zm0 288c-75.111 0-136-60.889-136-136s60.89-136 136-136c75.076.084 135.916 60.924 136 136 0 75.111-60.889 136-136 136z"/>
        <path d="M262.512 40c-61.856 0-112 50.144-112 112s50.145 112 112 112c61.828-.066 111.934-50.172 112-112 0-61.856-50.144-112-112-112zm8 207.666V224h-16v23.666c-46.637-3.848-83.817-41.028-87.666-87.666h23.666v-16h-23.666c3.849-46.637 41.029-83.817 87.666-87.666V80h16V56.343c46.612 3.893 83.764 41.045 87.657 87.657h-23.657v16h23.666c-3.848 46.637-41.028 83.817-87.666 87.666z"/>
        <path d="M284.18 162.33a23.909 23.909 0 002.333-10.33c0-10.449-6.68-19.334-16-22.629V96h-16v33.371c-9.32 3.295-16 12.18-16 22.629-.001 13.255 10.745 24 23.999 24 3.711 0 7.225-.843 10.362-2.347l23.977 23.977 11.314-11.314-23.985-23.986zM262.512 160a8 8 0 110-16 8 8 0 010 16z"/>
    </symbol>
    <symbol xmlns="http://www.w3.org/2000/svg" viewBox="0 0 64 64">
        <g>
            <path d="M13.293 14.293l-3 3a1 1 0 000 1.414l3 3 1.414-1.414L12.414 18l2.293-2.293z"/>
            <path
                    d="M14.228 17h8.544v2h-8.544z"
                    transform="rotate(-69.44 18.506 18.007)"
            />
            <path d="M23.707 21.707l3-3a1 1 0 000-1.414l-3-3-1.414 1.414L24.586 18l-2.293 2.293zM10 26h4v2h-4zM16 26h10v2H16zM12 30h4v2h-4zM18 30h10v2H18zM30 30h2v2h-2zM12 34h4v2h-4zM18 34h10v2H18zM30 34h2v2h-2zM61.142 13.01l-2.682-.383a10.86 10.86 0 00-.679-1.639l1.625-2.166a1 1 0 00-.093-1.307l-2.828-2.828a1 1 0 00-1.306-.093l-2.167 1.624a10.9 10.9 0 00-1.639-.678l-.383-2.682A1 1 0 0050 2h-4a1 1 0 00-.99.858l-.383 2.682a10.855 10.855 0 00-1.639.678l-2.167-1.624a1 1 0 00-1.306.093l-2.828 2.828a1 1 0 00-.093 1.307l1.625 2.166a10.86 10.86 0 00-.679 1.639l-2.682.383A1 1 0 0034 14v4a1 1 0 00.858.99l2.682.383a10.86 10.86 0 00.679 1.639l-1.625 2.166a1 1 0 00.093 1.307l2.828 2.828a1 1 0 001.306.093l2.167-1.624a10.855 10.855 0 001.639.678l.383 2.682A1 1 0 0046 30h4a1 1 0 00.99-.858l.383-2.682a10.9 10.9 0 001.639-.678l2.167 1.624a1 1 0 001.306-.093l2.828-2.828a1 1 0 00.093-1.307l-1.625-2.166a10.86 10.86 0 00.679-1.639l2.682-.383A1 1 0 0062 18v-4a1 1 0 00-.858-.99zM60 17.133l-2.463.352a1 1 0 00-.827.742 8.923 8.923 0 01-.977 2.357 1 1 0 00.061 1.111l1.492 1.99-1.6 1.6-1.991-1.492a1 1 0 00-1.11-.06 8.859 8.859 0 01-2.356.975 1 1 0 00-.744.828L49.133 28h-2.266l-.351-2.463a1 1 0 00-.744-.828 8.859 8.859 0 01-2.356-.975 1 1 0 00-1.11.06l-1.991 1.492-1.6-1.6 1.492-1.99a1 1 0 00.061-1.111 8.923 8.923 0 01-.977-2.357 1 1 0 00-.827-.742L36 17.133v-2.266l2.463-.352a1 1 0 00.827-.742 8.923 8.923 0 01.977-2.357 1 1 0 00-.061-1.111l-1.492-1.99 1.6-1.6 1.991 1.492a1 1 0 001.11.06 8.859 8.859 0 012.356-.975 1 1 0 00.744-.828L46.867 4h2.266l.351 2.463a1 1 0 00.744.828 8.859 8.859 0 012.356.975 1 1 0 001.11-.06l1.991-1.492 1.6 1.6-1.492 1.99a1 1 0 00-.061 1.111 8.923 8.923 0 01.977 2.357 1 1 0 00.827.742l2.464.353z"/>
            <path d="M48 10a6 6 0 106 6 6.006 6.006 0 00-6-6zm0 10a4 4 0 114-4 4 4 0 01-4 4z"/>
            <path d="M52 40H4V15a3 3 0 013-3h28v-2H7a5.006 5.006 0 00-5 5v30a5.006 5.006 0 005 5h12.867l-.75 6H17a2 2 0 00-2 2v2a2 2 0 002 2h22a2 2 0 002-2v-2a2 2 0 00-2-2h-2.117l-.75-6H49a5.006 5.006 0 005-5V29h-2zM39 60H17v-2h22zm-4.133-4H21.133l.75-6h12.234zM49 48H7a3 3 0 01-3-3v-3h48v3a3 3 0 01-3 3z"/>
            <path d="M46 44h2v2h-2z"/>
        </g>
    </symbol>
    <symbol xmlns="http://www.w3.org/2000/svg" viewBox="0 0 512 512">
        <g>
            <path d="M184 304H72a8 8 0 00-8 8v96a8 8 0 008 8h112a8 8 0 008-8v-96a8 8 0 00-8-8zm-8 96H80v-80h96z"/>
            <path d="M96 336h32v16H96zM128 368h32v16h-32z"/>
            <path d="M380 64H136V24a8 8 0 00-12.878-6.34l-104 80a8 8 0 000 12.68l104 80A8 8 0 00136 184v-40h216a64.072 64.072 0 0164 64v144a63.897 63.897 0 01-48 61.993V232a8 8 0 00-8-8H24a8 8 0 00-8 8v256a8 8 0 008 8h356a116.131 116.131 0 00116-116V180A116.131 116.131 0 00380 64zm-28 176v192H240V240zm-208 0v32h-32v-32zm-112 0h64v40a8 8 0 008 8h48a8 8 0 008-8v-40h64v192H32zm448 140a100.113 100.113 0 01-100 100H32v-32h328a8 8 0 008-8v-9.605A79.864 79.864 0 00432 352V208a80.09 80.09 0 00-80-80H128a8 8 0 00-8 8v31.753L37.121 104 120 40.247V72a8 8 0 008 8h252a100.113 100.113 0 01100 100z"/>
            <path d="M320 400h16v16h-16zM288 400h16v16h-16zM256 400h16v16h-16z"/>
        </g>
    </symbol>
    <symbol xmlns="http://www.w3.org/2000/svg" viewBox="0 0 50 2">
        <path fill="#63c3ef" d="M0 0h50v2H0z"/>
    </symbol>
    <symbol xmlns="http://www.w3.org/2000/svg" viewBox="0 0 512 512">
        <path d="M504.5 480.837h-38.97V240.49c0-4.142-3.357-7.5-7.5-7.5s-7.5 3.358-7.5 7.5v240.347h-49.648l-.002-318.357h49.65v43.01c0 4.142 3.357 7.5 7.5 7.5s7.5-3.358 7.5-7.5v-50.51a7.5 7.5 0 00-7.5-7.5h-64.65a7.5 7.5 0 00-7.5 7.5v43.012h-57.148a7.5 7.5 0 00-7.5 7.5V248.5h-57.15a7.5 7.5 0 00-7.5 7.5v43.008h-57.15a7.5 7.5 0 00-7.5 7.5v43.008h-57.15a7.5 7.5 0 00-7.5 7.5v38.964H70.13a7.5 7.5 0 00-7.5 7.5v20.89c0 4.142 3.357 7.5 7.5 7.5s7.5-3.358 7.5-7.5v-13.39h49.65v69.857H77.63V459.37c0-4.142-3.357-7.5-7.5-7.5s-7.5 3.358-7.5 7.5v21.467H31.163V7.5c0-4.142-3.357-7.5-7.5-7.5s-7.5 3.358-7.5 7.5v38.967H7.5c-4.143 0-7.5 3.358-7.5 7.5s3.357 7.5 7.5 7.5h8.663v49.65H7.5c-4.143 0-7.5 3.358-7.5 7.5s3.357 7.5 7.5 7.5h8.663v49.65H7.5c-4.143 0-7.5 3.358-7.5 7.5s3.357 7.5 7.5 7.5h8.663v49.65H7.5c-4.143 0-7.5 3.358-7.5 7.5s3.357 7.5 7.5 7.5h8.663v49.651H7.5c-4.143 0-7.5 3.358-7.5 7.5s3.357 7.5 7.5 7.5h8.663v49.65H7.5c-4.143 0-7.5 3.358-7.5 7.5s3.357 7.5 7.5 7.5h8.663v49.65H7.5c-4.143 0-7.5 3.358-7.5 7.5s3.357 7.5 7.5 7.5h8.663v38.967a7.5 7.5 0 007.5 7.5H62.63v8.663c0 4.142 3.357 7.5 7.5 7.5s7.5-3.358 7.5-7.5v-8.66h49.65v8.66c0 4.142 3.357 7.5 7.5 7.5s7.5-3.358 7.5-7.5v-8.663h49.65v8.663c0 4.142 3.357 7.5 7.5 7.5s7.5-3.358 7.5-7.5v-8.663h49.65v8.663c0 4.142 3.357 7.5 7.5 7.5s7.5-3.358 7.5-7.5v-8.663h49.65v8.663c0 4.142 3.357 7.5 7.5 7.5s7.5-3.358 7.5-7.5v-8.663h49.65v8.663c0 4.142 3.357 7.5 7.5 7.5s7.5-3.358 7.5-7.5v-8.66h49.65v8.66c0 4.142 3.357 7.5 7.5 7.5s7.5-3.358 7.5-7.5v-8.663h38.97a7.5 7.5 0 100-14.998zM142.28 364.516h49.65v116.321h-49.65zm64.651-50.508h49.65v166.829h-49.65zm64.65-50.508h49.65v217.337h-49.65zm64.65-50.508h49.648v267.846h-49.648z"/>
        <path d="M86.1 338.44c6.323 0 12.267-2.46 16.734-6.927l112.91-112.91a7.5 7.5 0 00-10.607-10.606L92.228 320.906a8.61 8.61 0 01-6.128 2.534c-2.311 0-4.482-.9-6.116-2.533a8.614 8.614 0 01-2.543-6.13c0-2.311.901-4.484 2.543-6.123l263.521-263.52a7.499 7.499 0 00-5.304-12.803h-23.61c-4.775 0-8.66-3.889-8.66-8.67 0-4.775 3.885-8.66 8.66-8.66h62.63c4.775 0 8.66 3.885 8.66 8.66v62.63c0 4.781-3.885 8.67-8.66 8.67s-8.66-3.889-8.66-8.67V62.68a7.499 7.499 0 00-12.804-5.303l-125.88 125.88a7.5 7.5 0 0010.607 10.606L353.56 80.787v5.503c0 13.052 10.614 23.67 23.66 23.67s23.66-10.618 23.66-23.67V23.66C400.88 10.614 390.266 0 377.22 0h-62.63c-13.046 0-23.66 10.614-23.66 23.66 0 13.052 10.614 23.67 23.66 23.67h5.504L69.38 298.043c-4.475 4.469-6.939 10.412-6.939 16.733 0 6.32 2.463 12.264 6.937 16.737A23.491 23.491 0 0086.1 338.44z"/>
    </symbol>
    <symbol
            xmlns="http://www.w3.org/2000/svg"
            viewBox="0 0 496 512"
    >
        <path
                fill="#fff"
                d="M165.9 397.4c0 2-2.3 3.6-5.2 3.6-3.3.3-5.6-1.3-5.6-3.6 0-2 2.3-3.6 5.2-3.6 3-.3 5.6 1.3 5.6 3.6zm-31.1-4.5c-.7 2 1.3 4.3 4.3 4.9 2.6 1 5.6 0 6.2-2s-1.3-4.3-4.3-5.2c-2.6-.7-5.5.3-6.2 2.3zm44.2-1.7c-2.9.7-4.9 2.6-4.6 4.9.3 2 2.9 3.3 5.9 2.6 2.9-.7 4.9-2.6 4.6-4.6-.3-1.9-3-3.2-5.9-2.9zM244.8 8C106.1 8 0 113.3 0 252c0 110.9 69.8 205.8 169.5 239.2 12.8 2.3 17.3-5.6 17.3-12.1 0-6.2-.3-40.4-.3-61.4 0 0-70 15-84.7-29.8 0 0-11.4-29.1-27.8-36.6 0 0-22.9-15.7 1.6-15.4 0 0 24.9 2 38.6 25.8 21.9 38.6 58.6 27.5 72.9 20.9 2.3-16 8.8-27.1 16-33.7-55.9-6.2-112.3-14.3-112.3-110.5 0-27.5 7.6-41.3 23.6-58.9-2.6-6.5-11.1-33.3 2.6-67.9 20.9-6.5 69 27 69 27 20-5.6 41.5-8.5 62.8-8.5s42.8 2.9 62.8 8.5c0 0 48.1-33.6 69-27 13.7 34.7 5.2 61.4 2.6 67.9 16 17.7 25.8 31.5 25.8 58.9 0 96.5-58.9 104.2-114.8 110.5 9.2 7.9 17 22.9 17 46.4 0 33.7-.3 75.4-.3 83.6 0 6.5 4.6 14.4 17.3 12.1C428.2 457.8 496 362.9 496 252 496 113.3 383.5 8 244.8 8zM97.2 352.9c-1.3 1-1 3.3.7 5.2 1.6 1.6 3.9 2.3 5.2 1 1.3-1 1-3.3-.7-5.2-1.6-1.6-3.9-2.3-5.2-1zm-10.8-8.1c-.7 1.3.3 2.9 2.3 3.9 1.6 1 3.6.7 4.3-.7.7-1.3-.3-2.9-2.3-3.9-2-.6-3.6-.3-4.3.7zm32.4 35.6c-1.6 1.3-1 4.3 1.3 6.2 2.3 2.3 5.2 2.6 6.5 1 1.3-1.3.7-4.3-1.3-6.2-2.2-2.3-5.2-2.6-6.5-1zm-11.4-14.7c-1.6 1-1.6 3.6 0 5.9 1.6 2.3 4.3 3.3 5.6 2.3 1.6-1.3 1.6-3.9 0-6.2-1.4-2.3-4-3.3-5.6-2z"
        />
    </symbol>
    <symbol
            xmlns="http://www.w3.org/2000/svg"

            viewBox="0 0 448 512"
    >
        <path
                fill="#fff"
                d="M416 32H31.9C14.3 32 0 46.5 0 64.3v383.4C0 465.5 14.3 480 31.9 480H416c17.6 0 32-14.5 32-32.3V64.3c0-17.8-14.4-32.3-32-32.3zM135.4 416H69V202.2h66.5V416zm-33.2-243c-21.3 0-38.5-17.3-38.5-38.5S80.9 96 102.2 96c21.2 0 38.5 17.3 38.5 38.5 0 21.3-17.2 38.5-38.5 38.5zm282.1 243h-66.4V312c0-24.8-.5-56.7-34.5-56.7-34.6 0-39.9 27-39.9 54.9V416h-66.4V202.2h63.7v29.2h.9c8.9-16.8 30.6-34.5 62.9-34.5 67.2 0 79.7 44.3 79.7 101.9V416z"
        ></path>
    </symbol>
    <symbol
            xmlns="http://www.w3.org/2000/svg"
            preserveAspectRatio="xMidYMid"
            viewBox="0 0 512 309"
    >
        <path
                fill="#FFF"
                d="M120.81 80.561h96.568v7.676h-87.716v57.767h82.486v7.675h-82.486v63.423h88.722v7.675H120.81V80.561zm105.22 0h10.26l45.467 63.423L328.23 80.56 391.441 0l-103.85 150.65 53.515 74.127h-10.663l-48.686-67.462-48.888 67.462h-10.461l53.917-74.128-50.296-70.088zm118.898 7.676V80.56h110.048v7.676h-50.699v136.54h-8.852V88.237h-50.497zM0 80.56h11.065l152.58 228.323-63.053-84.107L9.254 91.468l-.402 133.31H0V80.56zm454.084 134.224c-1.809 0-3.165-1.4-3.165-3.212 0-1.81 1.356-3.212 3.165-3.212 1.83 0 3.165 1.401 3.165 3.212 0 1.811-1.335 3.212-3.165 3.212zm8.698-8.45h4.737c.064 2.565 1.937 4.29 4.693 4.29 3.079 0 4.823-1.854 4.823-5.325v-21.99h4.823v22.011c0 6.252-3.617 9.853-9.603 9.853-5.62 0-9.473-3.493-9.473-8.84zm25.384-.28h4.78c.409 2.953 3.294 4.828 7.45 4.828 3.875 0 6.717-2.005 6.717-4.764 0-2.371-1.809-3.794-5.921-4.764l-4.005-.97c-5.62-1.316-8.181-4.032-8.181-8.602 0-5.54 4.521-9.227 11.303-9.227 6.308 0 10.916 3.686 11.196 8.925h-4.694c-.452-2.867-2.95-4.657-6.567-4.657-3.81 0-6.35 1.833-6.35 4.635 0 2.22 1.635 3.493 5.683 4.441l3.423.841c6.373 1.488 9 4.075 9 8.753 0 5.95-4.607 9.68-11.97 9.68-6.89 0-11.52-3.558-11.864-9.12z"
        ></path>
    </symbol>
    <symbol xmlns="http://www.w3.org/2000/svg" viewBox="0 0 24 24">
        <path d="M21.5 24h-19A2.503 2.503 0 010 21.5v-19C0 1.122 1.121 0 2.5 0h19C22.879 0 24 1.122 24 2.5v19c0 1.378-1.121 2.5-2.5 2.5zM2.5 1C1.673 1 1 1.673 1 2.5v19c0 .827.673 1.5 1.5 1.5h19c.827 0 1.5-.673 1.5-1.5v-19c0-.827-.673-1.5-1.5-1.5z"></path>
        <path d="M16.5 8h-9a.5.5 0 010-1h9a.5.5 0 010 1zM16.5 12.5h-9a.5.5 0 010-1h9a.5.5 0 010 1zM16.5 17h-9a.5.5 0 010-1h9a.5.5 0 010 1z"></path>
    </symbol>
    <symbol
            xmlns="http://www.w3.org/2000/svg"
            viewBox="0 0 508.044 508.044"
            xmlSpace="preserve"
    >
        <path d="M.108 352.536c0 66.794 54.144 120.938 120.937 120.938 66.794 0 120.938-54.144 120.938-120.938s-54.144-120.937-120.938-120.937c-13.727 0-26.867 2.393-39.168 6.61C109.093 82.118 230.814-18.543 117.979 64.303-7.138 156.17-.026 348.84.114 352.371c0 .055-.006.104-.006.165zM266.169 352.536c0 66.794 54.144 120.938 120.938 120.938s120.938-54.144 120.938-120.938S453.9 231.599 387.106 231.599c-13.728 0-26.867 2.393-39.168 6.61C375.154 82.118 496.875-18.543 384.04 64.303 258.923 156.17 266.034 348.84 266.175 352.371c0 .055-.006.104-.006.165z"></path>
    </symbol>
    <symbol
            xmlns="http://www.w3.org/2000/svg"
            xmlnsXlink="http://www.w3.org/1999/xlink"
            viewBox="0 0 800 160"
    >
        <defs>
            <path
                    id="path-1"
                    d="M0.321905678 0.275424046L91.2854215 0.275424046 91.2854215 120.758046 0.321905678 120.758046z"
            ></path>
            <path
                    id="path-3"
                    d="M0.000265185374 0.245106383L217.001549 0.245106383 217.001549 160 0.000265185374 160z"
            ></path>
        </defs>
        <g fill="none" fillRule="evenodd" stroke="none" strokeWidth="1">
            <g>
                <path
                        fill="#FFF"
                        d="M275.067 101.866h23.453c11.562 0 20.15-7.875 20.15-18.54 0-10.5-8.588-18.375-19.654-18.375h-23.95v36.915zm0 18.54V156h-22.628V46.412h52.027c20.646 0 36.997 15.258 36.997 36.915 0 21.82-16.02 37.078-37.492 37.078h-28.904z"
                ></path>
                <path
                        fill="#FFF"
                        d="M412.21 116.169a22.587 22.587 0 00-22.659-22.656c-12.57 0-22.824 10.088-22.824 22.656 0 12.569 10.255 22.821 22.824 22.821 12.57 0 22.66-10.252 22.66-22.821m-26.63-42.665c11.744 0 23.983 5.953 28.284 15.545h.496l.827-13.395h20.178V156h-20.178l-.827-12.545h-.496C409.399 153.377 396.663 159 385.582 159c-20.51 0-41.68-17.199-41.68-42.831s21.337-42.665 41.68-42.665z"
                ></path>
                <path
                        fill="#FFF"
                        d="M442.683 75.646h20.13l1.319 13.348h.33c4.95-9.558 15.51-15.49 26.399-15.49 21.943 0 35.968 16.808 35.968 38.395V156h-22.77v-41.793c0-11.206-8.249-20.434-19.303-20.434-10.56 0-19.304 9.393-19.304 20.928V156h-22.77V75.646z"
                ></path>
                <path
                        fill="#FFF"
                        d="M534.146341 38.0839695L557.050183 38.0839695 557.050183 107.0289 557.382123 107.0289 588.086549 75.7649175 616.632984 75.7649175 579.621704 112.788055 617.914429 156 589.206787 156 557.382123 118.547209 557.050183 118.547209 557.050183 156 534.146341 156z"
                ></path>
                <path
                        fill="#FFF"
                        d="M680.793 117.169c0-12.402-10.439-22.656-22.866-22.656s-22.866 10.254-22.866 22.656c0 12.569 10.439 22.821 22.866 22.821s22.866-10.252 22.866-22.821m-68.598 0c0-23.483 20.546-42.665 45.732-42.665 25.185 0 45.732 19.182 45.732 42.665S683.112 160 657.927 160c-25.186 0-45.732-19.348-45.732-42.831"
                ></path>
                <g transform="translate(708.537 37.863)">
                    <mask id="mask-2" fill="#fff">
                        <use xlinkHref="#path-1"></use>
                    </mask>
                    <path
                            fill="#FFF"
                            d="M68.504 78.186c0-12.492-10.07-22.519-22.618-22.519-12.546 0-22.782 10.027-22.782 22.52 0 12.492 10.236 22.682 22.782 22.682 12.547 0 22.618-10.19 22.618-22.683zM91.285.276v117.861H71.303l-.983-12.83h-.33c-4.458 9.862-17.335 15.451-28.396 15.451-20.966 0-41.272-17.094-41.272-42.572 0-25.477 20.306-42.407 40.777-42.407 11.556 0 22.947 6.082 27.074 15.45h.33V.276h22.782z"
                            mask="url(#mask-2)"
                    ></path>
                </g>
                <g>
                    <mask id="mask-4" fill="#fff">
                        <use xlinkHref="#path-3"></use>
                    </mask>
                    <path
                            fill="#FFF"
                            d="M182.173 72.305c-2.29.436-5.655.147-9.19-3.368-3.668-3.612-4.345-5.761-4.25-6.94.052-.648.857-.927 1.317-.465 5.78 5.814 9.82 8.131 12.257 9.045.852.319.76 1.557-.134 1.728m26.542 5.663c-6.276-4.573-27.029-25.934-49.026-43.646-6.438-6.16-14.343-12.953-24.534-19.151C77.881-19.665 18.3 17.397 18.3 17.397c69.437-26.06 111.01 9.69 111.01 9.69C75.653 7.744 14.422 29.206 0 46.055c6.595-3.596 32.116-17.178 77.408-15.215 30.387 1.852 48.579 14.189 59.277 26.497.266.38.596.772 1 1.176l.005.006c-.028.01-13.993 4.997-30.77-1.962 0 0 10.335 15.478 24.028 16.252-1.962 7.695-3.847 16.606-5.41 28.706-4.397 36.026 47.333 55.179 55.89 58.092l1.192.393s-18.86-18.315-17.052-61.137c-12.4-5.933-12.918-15.736-13.693-18.831 0 0 6.46 10.319 12.143 10.834 5.684.774 11.245-.894 13.435-1.29 3.037-.547 10.851.775 11.368 6.965.258 7.997-2.067 20.637 9.56 26.313 0 0-3.101-16.252 5.166-16.51 4.393.516 7.751.258 8.268-2.58.775-3.353 2.325-7.48 4.134-11.608 1.808-4.128 2.325-7.223-7.234-14.188"
                            mask="url(#mask-4)"
                    ></path>
                </g>
            </g>
        </g>
    </symbol>
    <symbol xmlns="http://www.w3.org/2000/svg" viewBox="0 0 21.8 23.8">
        <path
                d="M11 17.9a8.7 8.7 0 00.8 4.8 1 1 0 001.2.4.8.8 0 00.4-1.2 8.3 8.3 0 01-.7-3.8 7.6 7.6 0 0115.2 1.1A7.7 7.7 0 0116.1 25a.8.8 0 00-1.2.2.9.9 0 00.2 1.3 10 10 0 004.5 1.5 9.3 9.3 0 006.1-1.7l5.5 6.4a.9.9 0 00.6.3.7.7 0 00.7-.2.9.9 0 00.1-1.2L27 25.2a8.9 8.9 0 002.6-5.8A9.3 9.3 0 1011 17.9z"
                transform="translate(-10.9 -9.3)"
        ></path>
    </symbol>
    <symbol xmlns="http://www.w3.org/2000/svg" viewBox="0 0 512 512">
        <path d="M460.646 10H43.938C25.224 10 10 25.521 10 44.6v420.122c0 19.078 15.224 34.6 33.89 34.6 3.139.025 315.346 2.492 438.5 2.679h.03a19.282 19.282 0 0013.827-5.813A19.917 19.917 0 00502 481.77l-7.421-437.793C494.249 25.242 479.026 10 460.646 10zM43.938 22h416.708c11.879 0 21.719 9.954 21.935 22.184l6.511 384.244-96.777-99.462a33.563 33.563 0 00-54.35-3.721l-45.03 53.805a21.4 21.4 0 01-18.452 7.764 21.636 21.636 0 01-17.013-10.959l-81.253-140.576a33.583 33.583 0 00-56.1-3.578L22 345.014V44.6C22 32.138 31.841 22 43.938 22zm443.767 465.764a7.377 7.377 0 01-5.282 2.236h-.011c-123.12-.187-435.288-2.654-438.474-2.679-12.1 0-21.938-10.138-21.938-22.6V363.346L129.321 239.4l.271-.337a21.585 21.585 0 0136.236 2.221L247.08 381.86a33.576 33.576 0 0055.057 4.892l45.03-53.805a21.57 21.57 0 0135.25 2.83l.356.591L489.388 445.94l.612 36.028a8.007 8.007 0 01-2.295 5.796z"></path>
        <path d="M284.988 218.5c29.7 0 53.864-24.671 53.864-54.995s-24.164-54.995-53.864-54.995-53.863 24.671-53.863 54.995 24.163 54.995 53.863 54.995zm0-97.99c23.084 0 41.864 19.287 41.864 42.995s-18.78 43-41.864 43-41.863-19.288-41.863-42.995 18.775-42.996 41.863-42.996z"></path>
    </symbol>
    <symbol
            xmlns="http://www.w3.org/2000/svg"
            xmlnsXlink="http://www.w3.org/1999/xlink"
            viewBox="0 0 485.656 485.656"
            xml:space="preserve"
    >
        <path d="M334.512 312h-200a8 8 0 00-5.656 2.344l-96 96 11.312 11.312L137.824 328h187.888c-1.664 9.496-6.888 24-23.2 24h-88v16h88c31.64 0 40-31.4 40-48a8 8 0 00-8-8z"></path>
        <path d="M436.168 258.344a8 8 0 00-11.312 0l-72 72 11.312 11.312 65.712-65.712c10.828 14.37 8.629 34.68-5.024 46.4L331.2 416H166.512a8 8 0 00-5.656 2.344l-56 56 11.312 11.312L169.824 432h164.688a8 8 0 005.656-2.344l96-96c29.792-29.792 13.024-62.288 0-75.312zM390.512 112H361.76a111.297 111.297 0 00-8.792-21.192l20.344-20.344a8 8 0 000-11.312L339.36 25.208a8 8 0 00-11.312 0l-20.344 20.344a110.95 110.95 0 00-21.192-8.8V8a8 8 0 00-8-8h-48a8 8 0 00-8 8v28.752a110.95 110.95 0 00-21.192 8.8l-20.344-20.344a8 8 0 00-11.312 0l-33.952 33.944a8 8 0 000 11.312l20.352 20.344a111.392 111.392 0 00-8.8 21.192h-28.752a8 8 0 00-8 8v48a8 8 0 008 8h28.752a111.297 111.297 0 008.792 21.192l-20.344 20.344a8 8 0 000 11.312l33.952 33.952a8.232 8.232 0 0011.312 0l20.344-20.352a111.392 111.392 0 0021.192 8.8V280a8 8 0 008 8h48a8 8 0 008-8v-28.752a111.454 111.454 0 0021.192-8.792l20.344 20.344a8 8 0 0011.312 0l33.944-33.952a8 8 0 000-11.312l-20.344-20.344a111.392 111.392 0 008.8-21.192h28.752a8 8 0 008-8v-48a8 8 0 00-8-8zm-7.999 48h-26.888a8 8 0 00-7.784 6.16 95.729 95.729 0 01-11.68 28.144 8.001 8.001 0 001.152 9.864l19.032 19.024-22.64 22.64-19.024-19.04a8.001 8.001 0 00-9.864-1.152 95.436 95.436 0 01-28.144 11.688 8 8 0 00-6.16 7.784V272h-32v-26.88a8 8 0 00-6.16-7.784 95.436 95.436 0 01-28.144-11.688 8.001 8.001 0 00-9.864 1.152l-19.024 19.04-22.64-22.64 19.032-19.04a8.001 8.001 0 001.152-9.864 95.74 95.74 0 01-11.68-28.144 8 8 0 00-7.784-6.16h-26.888v-32H153.4a8 8 0 007.784-6.16 95.74 95.74 0 0111.68-28.144 8.001 8.001 0 00-1.152-9.864L152.68 64.8l22.632-22.624 19.032 19.032a8.001 8.001 0 009.864 1.152 95.198 95.198 0 0128.144-11.68 8 8 0 006.16-7.784V16h32v26.896a8 8 0 006.168 7.784 95.198 95.198 0 0128.144 11.68 8.001 8.001 0 009.864-1.152l19.024-19.032L356.345 64.8l-19.032 19.032a8.001 8.001 0 00-1.152 9.864 95.74 95.74 0 0111.68 28.144 8 8 0 007.784 6.16h26.888v32z"></path>
        <path d="M254.512 96c-26.51 0-48 21.49-48 48s21.491 48 48 48c26.499-.026 47.974-21.501 48-48 0-26.51-21.49-48-48-48zm0 80c-17.673 0-32-14.327-32-32 0-17.673 14.327-32 32-32 17.673 0 32 14.327 32 32 0 17.673-14.327 32-32 32z"></path>
    </symbol>
    <symbol xmlns="http://www.w3.org/2000/svg" viewBox="0 0 16 11">
        <path d="M2 4l4 4 8-8"></path>
    </symbol>
    <symbol
            xmlns="http://www.w3.org/2000/svg"
            ariaHidden="true"
            data-icon="twitter"
            data-da="fab"
            viewBox="0 0 512 512"
    >
        <path
                fill="#fff"
                d="M459.37 151.716c.325 4.548.325 9.097.325 13.645 0 138.72-105.583 298.558-298.558 298.558-59.452 0-114.68-17.219-161.137-47.106 8.447.974 16.568 1.299 25.34 1.299 49.055 0 94.213-16.568 130.274-44.832-46.132-.975-84.792-31.188-98.112-72.772 6.498.974 12.995 1.624 19.818 1.624 9.421 0 18.843-1.3 27.614-3.573-48.081-9.747-84.143-51.98-84.143-102.985v-1.299c13.969 7.797 30.214 12.67 47.431 13.319-28.264-18.843-46.781-51.005-46.781-87.391 0-19.492 5.197-37.36 14.294-52.954 51.655 63.675 129.3 105.258 216.365 109.807-1.624-7.797-2.599-15.918-2.599-24.04 0-57.828 46.782-104.934 104.934-104.934 30.213 0 57.502 12.67 76.67 33.137 23.715-4.548 46.456-13.32 66.599-25.34-7.798 24.366-24.366 44.833-46.132 57.827 21.117-2.273 41.584-8.122 60.426-16.243-14.292 20.791-32.161 39.308-52.628 54.253z"
        ></path>
    </symbol>
    <symbol
            xmlns="http://www.w3.org/2000/svg"
            xmlnsXlink="http://www.w3.org/1999/xlink"
            viewBox="0 0 512 512"
            xml:space="preserve"
    >
        <path d="M41.073 152.466a10.2 10.2 0 00-18.895-.657C7.468 184.791.009 219.844.009 255.99c0 48.964 13.875 96.559 40.124 137.639 25.548 39.983 61.564 72.053 104.158 92.743a10.194 10.194 0 0011.29-1.604 10.2 10.2 0 002.747-11.068L41.073 152.466zM20.408 255.99c0-24.264 3.652-47.994 10.883-70.837l98.5 269.854C61.706 412.039 20.408 337.973 20.408 255.99zM345.376 480.765l-75.473-206.771a10.2 10.2 0 00-9.58-6.702h-.096a10.203 10.203 0 00-9.55 6.88l-73.753 214.293a10.195 10.195 0 006.766 13.104A256.135 256.135 0 00256.001 512c29.053 0 57.656-4.883 85.015-14.514a10.204 10.204 0 006.226-6.212 10.194 10.194 0 00-.922-8.747c-.423-.691-.726-1.255-.944-1.762zm-89.375 10.837a235.616 235.616 0 01-56.238-6.818l60.841-176.773 63.36 173.59c-22.027 6.64-44.838 10.001-67.963 10.001z"></path>
        <path d="M373.292 403.888c4.314 0 8.167-2.717 9.612-6.788l27.138-76.438c13.018-33.396 19.346-60.555 19.346-83.022 0-33.87-10.023-51.413-18.869-66.891a10.448 10.448 0 00-.167-.283c-.982-1.597-1.959-3.175-2.926-4.737-10.569-17.065-19.698-31.803-19.698-47.571 0-16.074 11.879-33.424 31.069-33.424.317 0 .804.041 1.321.085.404.034.805.067 1.209.093 4.329.281 8.341-2.2 10.038-6.179a10.2 10.2 0 00-2.492-11.52C381.573 23.87 320.18 0 256.001 0 169.666 0 89.708 43.127 42.115 115.365a10.199 10.199 0 008.179 15.805c6.281.208 11.719.314 16.16.314 23.686 0 58.376-2.55 65.182-3.068 1.089 1.962 1.193 6.64.137 8.39-2.685.3-14.319 1.553-26.893 2.209a10.196 10.196 0 00-9.137 13.433l80.48 239.565a10.198 10.198 0 009.668 6.951h.011a10.2 10.2 0 009.665-6.973l53.793-161.323a10.2 10.2 0 00-.122-6.8l-29.269-78.243a10.2 10.2 0 00-8.959-6.608c-11.584-.675-22.772-1.988-24.791-2.231-.919-1.946-.707-6.437.377-8.368 7.002.524 42.099 3.064 64.336 3.064 23.69 0 58.382-2.55 65.184-3.068 1.09 1.961 1.196 6.641.139 8.389-2.677.3-14.328 1.554-26.896 2.211a10.2 10.2 0 00-9.123 13.478l83.404 244.49a10.2 10.2 0 009.59 6.906h.062zM303.83 158.48c8.698-.708 14.988-1.437 15.375-1.483 11.726-1.386 19.321-12.743 18.061-27.005-1.206-13.633-10.034-22.696-21.423-22.014l-.198.013c-.395.031-39.714 3.092-64.716 3.092-23.477 0-63.551-3.063-63.953-3.093a5.5 5.5 0 00-.184-.012c-11.588-.695-20.652 9.083-21.489 23.228-.836 14.126 6.861 24.914 18.351 25.817 1.624.197 9.756 1.164 19.509 1.907l25.701 68.706-43.012 128.993-66.564-198.143c8.736-.709 15.053-1.442 15.444-1.488 11.724-1.386 19.316-12.747 18.055-27.012-1.207-13.629-10.032-22.697-21.419-22.007l-.198.013c-.374.031-35.884 2.795-60.879 3.071 44.547-57.103 112.646-90.666 185.71-90.666 51.924 0 101.868 16.978 142.757 48.187-18.452 8.187-31.428 27.326-31.428 49.574 0 21.573 11.053 39.419 22.755 58.312.927 1.497 1.864 3.01 2.806 4.541 8.29 14.509 16.097 28.269 16.097 56.629 0 19.642-6.058 45.128-18.008 75.755-.038.098-.074.196-.109.295l-17.388 48.972L303.83 158.48z"></path>
        <path d="M480.631 133.175a10.205 10.205 0 00-12.133-4.786 10.202 10.202 0 00-6.917 11.059c1.038 7.665 1.566 15.707 1.566 23.901 0 26.824-5.711 53.594-17.971 84.247-.06.15-.116.302-.169.454l-75.07 217.056a10.201 10.201 0 009.643 13.532 10.17 10.17 0 005.132-1.388c38.017-22.163 69.889-53.921 92.171-91.842 22.969-39.088 35.109-83.839 35.109-129.417-.001-42.904-10.845-85.374-31.361-122.816zm-81.473 309.854l65.051-188.086c9.331-23.375 15.137-44.781 17.736-65.726a236.37 236.37 0 019.65 66.774c0 73.498-34.797 142.771-92.437 187.038z"></path>
        <g>
            <path d="M262.286 369.734c-5.342-1.782-11.119 1.108-12.901 6.451l-1.36 4.079c-1.781 5.343 1.108 11.119 6.451 12.901 1.07.357 2.157.526 3.226.526 4.27 0 8.25-2.703 9.675-6.977l1.36-4.079c1.781-5.343-1.108-11.119-6.451-12.901z"></path>
        </g>
        <g>
            <path d="M249.707 407.472c-5.344-1.786-11.119 1.108-12.901 6.45l-16.999 50.996c-1.781 5.343 1.108 11.119 6.451 12.9a10.15 10.15 0 003.226.527c4.27 0 8.25-2.703 9.675-6.977l16.998-50.996c1.782-5.343-1.107-11.119-6.45-12.9z"></path>
        </g>
    </symbol>
    <symbol
            xmlns="http://www.w3.org/2000/svg"
            ariaHidden="true"
            data-icon="youtube"
            data-prefix="fab"
            viewBox="0 0 576 512"
    >
        <path
                fill="#fff"
                d="M549.655 124.083c-6.281-23.65-24.787-42.276-48.284-48.597C458.781 64 288 64 288 64S117.22 64 74.629 75.486c-23.497 6.322-42.003 24.947-48.284 48.597-11.412 42.867-11.412 132.305-11.412 132.305s0 89.438 11.412 132.305c6.281 23.65 24.787 41.5 48.284 47.821C117.22 448 288 448 288 448s170.78 0 213.371-11.486c23.497-6.321 42.003-24.171 48.284-47.821 11.412-42.867 11.412-132.305 11.412-132.305s0-89.438-11.412-132.305zm-317.51 213.508V175.185l142.739 81.205-142.739 81.201z"
        ></path>
    </symbol>
</svg>

